<svg xmlns="http://www.w3.org/2000/svg" width="100%" height="420" viewBox="0 0 1200 420" preserveAspectRatio="none">
  <!-- Vertical lines every 200px -->
  <g opacity="0.15">
    <line x1="0" y1="0" x2="0" y2="420" stroke="#d1d5db" stroke-width="1.5"/>
    <line x1="200" y1="0" x2="200" y2="420" stroke="#d1d5db" stroke-width="1.5"/>
    <line x1="400" y1="0" x2="400" y2="420" stroke="#d1d5db" stroke-width="1.5"/>
    <line x1="600" y1="0" x2="600" y2="420" stroke="#d1d5db" stroke-width="1.5"/>
    <line x1="800" y1="0" x2="800" y2="420" stroke="#d1d5db" stroke-width="1.5"/>
    <line x1="1000" y1="0" x2="1000" y2="420" stroke="#d1d5db" stroke-width="1.5"/>
    <line x1="1200" y1="0" x2="1200" y2="420" stroke="#d1d5db" stroke-width="1.5"/>
  </g>
  <!-- Bottom half: 17 non-crossing wavy horizontal lines -->
  <g opacity="0.13">
    <path d="M0 240 Q200 260 400 240 Q600 220 800 240 Q1000 260 1200 240" stroke="#d1d5db" stroke-width="1.2" fill="none"/>
    <path d="M0 255 Q200 275 400 255 Q600 235 800 255 Q1000 275 1200 255" stroke="#d1d5db" stroke-width="1.2" fill="none"/>
    <path d="M0 270 Q200 290 400 270 Q600 250 800 270 Q1000 290 1200 270" stroke="#d1d5db" stroke-width="1.2" fill="none"/>
    <path d="M0 285 Q200 305 400 285 Q600 265 800 285 Q1000 305 1200 285" stroke="#d1d5db" stroke-width="1.2" fill="none"/>
    <path d="M0 300 Q200 320 400 300 Q600 280 800 300 Q1000 320 1200 300" stroke="#d1d5db" stroke-width="1.2" fill="none"/>
    <path d="M0 315 Q200 335 400 315 Q600 295 800 315 Q1000 335 1200 315" stroke="#d1d5db" stroke-width="1.2" fill="none"/>
    <path d="M0 330 Q200 350 400 330 Q600 310 800 330 Q1000 350 1200 330" stroke="#d1d5db" stroke-width="1.2" fill="none"/>
    <path d="M0 345 Q200 365 400 345 Q600 325 800 345 Q1000 365 1200 345" stroke="#d1d5db" stroke-width="1.2" fill="none"/>
    <path d="M0 360 Q200 380 400 360 Q600 340 800 360 Q1000 380 1200 360" stroke="#d1d5db" stroke-width="1.2" fill="none"/>
    <path d="M0 375 Q200 395 400 375 Q600 355 800 375 Q1000 395 1200 375" stroke="#d1d5db" stroke-width="1.2" fill="none"/>
    <path d="M0 390 Q200 410 400 390 Q600 370 800 390 Q1000 410 1200 390" stroke="#d1d5db" stroke-width="1.2" fill="none"/>
    <path d="M0 405 Q200 425 400 405 Q600 385 800 405 Q1000 425 1200 405" stroke="#d1d5db" stroke-width="1.2" fill="none"/>
    <path d="M0 420 Q200 440 400 420 Q600 400 800 420 Q1000 440 1200 420" stroke="#d1d5db" stroke-width="1.2" fill="none"/>
    <path d="M0 435 Q200 455 400 435 Q600 415 800 435 Q1000 455 1200 435" stroke="#d1d5db" stroke-width="1.2" fill="none"/>
    <path d="M0 450 Q200 470 400 450 Q600 430 800 450 Q1000 470 1200 450" stroke="#d1d5db" stroke-width="1.2" fill="none"/>
    <path d="M0 465 Q200 485 400 465 Q600 445 800 465 Q1000 485 1200 465" stroke="#d1d5db" stroke-width="1.2" fill="none"/>
    <path d="M0 480 Q200 500 400 480 Q600 460 800 480 Q1000 500 1200 480" stroke="#d1d5db" stroke-width="1.2" fill="none"/>
  </g>
</svg>